<svg xmlns="http://www.w3.org/2000/svg" viewBox="5735.09 658.536 19.186 19.186">
  <defs>
    <style>
      .cls-1 {
        fill: none;
        stroke: #db9922;
        stroke-miterlimit: 10;
      }

      .cls-2 {
        fill: #db9922;
      }
    </style>
  </defs>
  <g id="Group_140" data-name="Group 140" transform="translate(5735.59 659.036)">
    <ellipse id="Ellipse_265" data-name="Ellipse 265" class="cls-1" cx="9.093" cy="9.093" rx="9.093" ry="9.093" transform="translate(0 0)"/>
    <path id="Path_247" data-name="Path 247" class="cls-2" d="M240.581,144.909a4.5,4.5,0,0,1,1.828,1.241,2.535,2.535,0,0,1,.519,1.557,2.851,2.851,0,0,1-.632,1.873,3.1,3.1,0,0,1-1.737,1.038v.9h-.812v-.79H239.7a4.632,4.632,0,0,1-2.211-.5l.226-.97a4.817,4.817,0,0,0,1.94.5h.09v-4.039a4.481,4.481,0,0,1-1.918-1.264,2.212,2.212,0,0,1-.429-1.309,2.361,2.361,0,0,1,.609-1.647,2.959,2.959,0,0,1,1.737-.857V139.9h.812v.677a5.906,5.906,0,0,1,1.873.293l-.248.97a4.765,4.765,0,0,0-1.625-.293v3.362Zm-.812-.384v-2.911a1.449,1.449,0,0,0-1.241,1.467C238.551,143.645,238.957,144.119,239.769,144.525Zm.812,5.1a1.706,1.706,0,0,0,1.241-1.76,1.616,1.616,0,0,0-.293-.993,3.107,3.107,0,0,0-.948-.767Z" transform="translate(-231.037 -136.719)"/>
  </g>
</svg>
