<svg xmlns="http://www.w3.org/2000/svg" viewBox="6428 19.189 14 29.323">
  <defs>
    <style>
      .cls-1 {
        fill: #db9922;
      }
    </style>
  </defs>
  <g id="Group_73" data-name="Group 73" transform="translate(6424.004 15.139)">
    <path id="Path_248" data-name="Path 248" class="cls-1" d="M17.948,114.531q-3.045-9.555-6.1-19.12a.889.889,0,0,0-1.7,0q-3.059,9.569-6.109,19.12a.892.892,0,0,0,.857,1.118H17.1a.8.8,0,0,0,.643-.279.755.755,0,0,0,.2-.838" transform="translate(0 -82.275)"/>
    <path id="Path_249" data-name="Path 249" class="cls-1" d="M42.22,11.636a3.805,3.805,0,0,0,3.772-3.53,1.177,1.177,0,0,0,.028-.261.815.815,0,0,0-.047-.345,3.774,3.774,0,0,0-7.534.345,3.81,3.81,0,0,0,3.781,3.79" transform="translate(-31.229)"/>
  </g>
</svg>
