<svg xmlns="http://www.w3.org/2000/svg" viewBox="7246.11 1998 33.89 32.557"><defs><style>.a{fill:#bababa;}</style></defs><g transform="translate(7246.11 1998)"><path class="a" d="M1.419,6.512V28.788A3.2,3.2,0,0,0,2.049,30.5a1.269,1.269,0,0,0,2.207,0,3.82,3.82,0,0,0,.473-.857,3.645,3.645,0,0,0,.315-1.885V6.512ZM5.675,31.187h23.8a2.168,2.168,0,0,0,1.1-.171,3.6,3.6,0,0,0,2.049-3.427V1.371H6.62c-.158,0-.158,0-.158.171V27.76a5.463,5.463,0,0,1-.315,2.228,8.753,8.753,0,0,1-.473,1.2m-3.468,1.2c-.158-.171-.473-.171-.631-.343a4.561,4.561,0,0,1-1.419-2.4C.158,29.3,0,28.959,0,28.616V5.655a.86.86,0,0,1,.788-.514H5.044V.857A.8.8,0,0,1,5.517,0h27.9q.473.257.473.514V28.445a7.172,7.172,0,0,1-2.364,4.113" transform="translate(0)"/><rect class="a" width="10.876" height="8.054" transform="translate(8.197 11.481)"/><rect class="a" width="21.752" height="2.228" transform="translate(8.669 26.903)"/><rect class="a" width="21.752" height="2.228" transform="translate(8.669 21.934)"/><path class="a" d="M17.89,2.4h1.576c-.473,1.885-.788,3.77-1.261,5.655H16.314c-.158-1.2-.473-2.228-.631-3.427V4.8c-.158,1.028-.473,2.056-.631,3.084,0,0,0,.171-.158.171H13.161C12.688,6.17,12.373,4.285,11.9,2.4h1.734a21.42,21.42,0,0,0,.631,3.084h0A21.42,21.42,0,0,1,14.895,2.4h1.576a.159.159,0,0,1,.158.171,19.248,19.248,0,0,0,.631,2.913v.171A29.968,29.968,0,0,0,17.89,2.4" transform="translate(6.857 1.713)"/><path class="a" d="M6.419,5.313V8.055H5V2.4H6.261c.158,0,.158,0,.315.171a29.31,29.31,0,0,0,1.892,2.4l.158.171V2.4H10.2V8.055H8.941c-.158,0-.158,0-.315-.171a29.31,29.31,0,0,0-1.892-2.4c-.158-.171-.158-.171-.315-.171h0" transform="translate(2.881 1.713)"/><rect class="a" width="9.458" height="2.228" transform="translate(20.964 11.824)"/><rect class="a" width="9.458" height="2.228" transform="translate(20.964 16.964)"/><path class="a" d="M13.471,2.4V3.771H10.634v.685H13V5.827H10.634v.857h2.837V8.055H8.9V2.4Z" transform="translate(5.129 1.713)"/><path class="a" d="M17,6h1.576c.158.514.158.685.631.685h.631a.355.355,0,0,0,.315-.343A.615.615,0,0,0,19.995,6a1.6,1.6,0,0,0-.788-.171c-.473-.171-.788-.171-1.261-.343A1.986,1.986,0,0,1,17,4.114a1.3,1.3,0,0,1,.788-1.371A2.9,2.9,0,0,1,19.522,2.4a1.779,1.779,0,0,1,1.261.343,1.291,1.291,0,0,1,.946,1.371H20.153A.848.848,0,0,0,18.892,3.6a.339.339,0,0,0,0,.514.55.55,0,0,0,.473.171c.473.171.946.171,1.419.343a1.254,1.254,0,0,1,.946,1.2,1.867,1.867,0,0,1-1.261,2.228,6.251,6.251,0,0,1-2.522,0A2.518,2.518,0,0,1,17,6" transform="translate(9.796 1.713)"/></g></svg>