<svg xmlns="http://www.w3.org/2000/svg" viewBox="7136 1997 40.041 36"><defs><style>.a{fill:none;}.b{fill:#bababa;}.c{fill:#dc9814;}</style></defs><g transform="translate(7136.025 1997)"><path class="a" d="M17.2,14h0c0,.2.2.2,0,0Z" transform="translate(17.919 14.564)"/><path class="a" d="M16.5,13.2Z" transform="translate(17.191 13.732)"/><path class="a" d="M16.9,14.1Z" transform="translate(17.607 14.668)"/><path class="a" d="M17.008,13.912h.2a.2.2,0,0,0,.2-.2v-.2a.2.2,0,0,0-.2-.2H16.6v.408h0C16.8,13.912,16.8,13.912,17.008,13.912Z" transform="translate(17.295 13.836)"/><path class="a" d="M16.7,14.1Z" transform="translate(17.399 14.668)"/><path class="a" d="M17.108,13.8H16.7v.408h.612V14a.2.2,0,0,0-.2-.2Z" transform="translate(17.399 14.356)"/><path class="a" d="M20.913,15.26a3.1,3.1,0,0,0-2.856-3.06,2.856,2.856,0,0,0,0,5.713A2.522,2.522,0,0,0,20.913,15.26Zm-1.632-1.632h0c0-.2.2-.2,0,0Zm0,0h0c.2,0,.2.2,0,0h0c.2.2,0,.2,0,0Zm-.2-.2Zm0,.408Zm-.2-.408h0c.2,0,.2.2,0,0Zm0,.2Zm.2.2Zm-.2-.408Zm-.408,0Zm-.2.2Zm-.2,0Zm-.2,0Zm-.2.2h0c-.2,0-.2-.2,0,0Zm0,0h0c-.2.2-.2,0,0,0Zm-.2-.2Zm0,0Zm0,.2h0c-.2.2-.2,0,0,0Zm-.408.816Zm0-.408Zm0,.816Zm0-.2Zm0-.816Zm0,1.428Zm0,.408Zm-.2-1.836Zm0,.612Zm0,.2Zm0-.408Zm0,1.02Zm0,.2Zm0,.612Zm0,.2Zm.2,0Zm0-.408Zm0,0Zm0-.408Zm.2,1.02Zm0-.2Zm0-.2Zm0-.2Zm0-.612Zm0,0Zm0-1.02Zm0,0Zm0,.408Zm0,.2Zm0,.612Zm0-1.428Zm.2,2.244Zm.2,0Zm0,0h0c-.2.2-.2,0,0,0Zm0,.408Zm.2-.2h0c0,.2-.2.2,0,0Zm.2,0h0c0,.2-.2.2,0,0Zm.2.2Zm0-.2Zm0-.2Zm.2.408Zm.2,0Zm.408.2Zm0-.2Zm-.2-.2Zm.408.408Zm0-.408Zm.2,0Zm.2-.612c0,.2-.2.2-.408.408h-.2v.2h-.408v-.2h-.2v.2h-.408v-.2h-.408v-.612h.2v-.408h-.2v-.2h0v-.408h-.2v-.2h0v-.2h.2v-.612h.816v-.2h.408v.2h.408a.2.2,0,0,1,.2.2v.612c0,.2,0,.2-.2.2l-.2.2h.2v.2h.2v.2A1.579,1.579,0,0,1,19.689,16.077Zm-2.244-.408Zm0,0Zm-.2-.2Zm.2-.2Zm-.2-.2Zm.2-.2Zm0-.2Z" transform="translate(15.839 12.692)"/><path class="a" d="M13.7,5.9h0c-.2.2-.2.2-.2.408h.408c-.2-.2-.2-.2-.2-.408Z" transform="translate(14.07 6.138)"/><path class="a" d="M14.1,5.9Z" transform="translate(14.486 6.138)"/><path class="a" d="M11.3,8.325V2A10.223,10.223,0,0,0,6,10.773a10.139,10.139,0,0,0,5.3,8.977Z" transform="translate(6.268 2.081)"/><path class="a" d="M15.7,4.546Z" transform="translate(16.359 4.635)"/><path class="a" d="M16.4,13.478Z" transform="translate(17.087 13.862)"/><path class="a" d="M16.578,13.2Z" transform="translate(17.113 13.732)"/><path class="a" d="M16.5,14.2h0c.2.2.2,0,0,0Z" transform="translate(17.191 14.772)"/><path class="a" d="M16.5,13.4h0c0,.2.2.2,0,0Z" transform="translate(17.191 13.94)"/><path class="a" d="M17.378,13.2Z" transform="translate(17.945 13.732)"/><path class="a" d="M17.378,13.4Z" transform="translate(17.945 13.94)"/><path class="a" d="M16.5,13.778Z" transform="translate(17.191 14.174)"/><path class="a" d="M16.4,13.9Z" transform="translate(17.087 14.46)"/><path class="a" d="M14.9,5.9h0c-.2.2-.2.2-.2.408h.408c0-.2,0-.2-.2-.408Z" transform="translate(15.318 6.138)"/><path class="a" d="M16.3,14.1Z" transform="translate(16.983 14.668)"/><path class="a" d="M16.4,13.9Z" transform="translate(17.087 14.46)"/><path class="a" d="M12.248,19.439a1.176,1.176,0,0,1,1.224-1.224h5.509c.408-.408.816-.612,1.02-1.02l1.224-1.224h0c.2-.2.2-.612.408-.816H13.473q-1.224-.306-1.224-1.224a1.176,1.176,0,0,1,1.224-1.224H22.45V12.3a5.649,5.649,0,0,0,.2-1.836V9.645h0c0-.408-.2-.816-.2-1.428h0a2.9,2.9,0,0,0-.408-1.224l-.2.2-.2-.2h-.2a.439.439,0,0,0-.408.408.2.2,0,0,0,.2.2.2.2,0,0,1,.2.2v.2h0a.632.632,0,0,0-.408-.2c-.2,0-.2-.2-.2-.408s0-.2.2-.408.2-.2.408-.2h.2v0c.2,0,.2.2.408.2v-.2h0v-.2h0A10.127,10.127,0,0,0,18.573,2.3H9.8V9.441h0v.2h0V20.459a12.042,12.042,0,0,0,2.856.408,3.025,3.025,0,0,0,1.428-.2h-.408C12.656,20.663,12.248,20.255,12.248,19.439Zm1.02-10.406h-.2V6.789h.2Zm3.877.612h0l-.2.408h0l.2-.408Zm.408.408h-.2V9.645h.408c-.2.2,0,.2-.2.408Zm.408-.408h0v.408h0V9.645Zm.2.408h0c-.2,0-.2-.2,0,0v-.2h.408v.2Zm.612-.408h-.2v.408h0V9.645Zm.816.612h0v-.2l-.2-.408h0l.2.2.2-.2h0Zm.612-.2H20V9.645h.408c-.2.2-.2.2-.2.408Zm.612-1.632a.2.2,0,0,0,.2.2h0v0h.2c.408,0,.408-.2.408-.408s0-.2-.2-.408h-.408V7.6h0c.2,0,.2,0,.2.2h.2c.2.2.2.2.2.408s0,.408-.2.408a.632.632,0,0,1-.408.2h-.408c.408.2.2,0,.2-.408Zm-.2,1.224h0c.2,0,.2.2,0,0h0v.408h0Zm-.408,0h0l.2.2h0a.2.2,0,0,0,.2-.2h0v.408h-.408V9.645Zm-1.02-2.856h.2V5.973h.2v1.02H20v.2h-.408v2.04h-.2V7.2h-.2Zm-.2,2.856h0v.408h0V9.645Zm-2.04-5.3h.2V3.32h.2V4.34h.408v.2h-.408V7.2c.2-.2.408-.408.612-.408.612,0,.816.2.816.816V9.033h-.2V7.809a.541.541,0,0,0-.612-.612c-.2,0-.408,0-.408.2-.2.2-.2.2-.2.408V9.237h-.2V8.625h0V4.544h-.2v-.2Zm-.408,5.3h.408v.408h-.408v.2h0V9.645Zm-1.224-5.3h.2v.2l.2-.2h.408a.2.2,0,0,1,.2.2h0a.2.2,0,0,1-.2-.2h-.408a.2.2,0,0,0-.2.2V6.381h-.2V4.34ZM16.125,7.2V6.789h.2V9.033c0,.408,0,.612-.2.816s-.408.2-.816.2c-.612,0-1.02-.2-1.02-.612h0c0,.2.2.2.408.408h.612a.721.721,0,0,0,.816-.816V8.625a1.547,1.547,0,0,1-.816.408,1.06,1.06,0,0,1-.816-.408,1.02,1.02,0,0,1,0-1.632,1.06,1.06,0,0,1,.816-.408C15.513,6.789,15.921,6.993,16.125,7.2ZM12.86,4.544a1.02,1.02,0,0,1,1.632,0v-.2h.2V6.585h-.2V5.973a1.547,1.547,0,0,1-.816.408,1.06,1.06,0,0,1-.816-.408,1.06,1.06,0,0,1-.408-.816C12.452,4.952,12.656,4.748,12.86,4.544ZM11.84,6.993h0c-.2,0-.2.2-.408.2V9.033h-.2V6.789h.2v.2l.2-.2.2-.2h.2a.2.2,0,0,1,.2.2V7.2l-.408-.2Z" transform="translate(10.221 2.393)"/><path class="a" d="M13.3,6.2h0l.2-.2H13.1l.2.2Z" transform="translate(13.654 6.242)"/><path class="a" d="M12.5,11.5Z" transform="translate(13.03 11.963)"/><path class="a" d="M12.116,5.032a.721.721,0,0,0,.816-.816.721.721,0,0,0-.816-.816.721.721,0,0,0-.816.816.75.75,0,0,0,.2.612C11.5,5.032,11.708,5.032,12.116,5.032Z" transform="translate(11.781 3.537)"/><path class="a" d="M19,11.8Z" transform="translate(19.792 12.276)"/><path class="a" d="M12.2,6.128a.75.75,0,0,0,.612.2.721.721,0,0,0,.816-.816.721.721,0,0,0-.816-.816.75.75,0,0,0-.612.2c-.2,0-.2.2-.2.612A.75.75,0,0,0,12.2,6.128Z" transform="translate(12.51 4.889)"/><path class="a" d="M12.5,11.3v.408h0V11.3Z" transform="translate(13.03 11.755)"/><path class="a" d="M19,14.7Z" transform="translate(19.792 15.292)"/><path class="a" d="M19,8.1Z" transform="translate(19.792 8.426)"/><path class="a" d="M19,11.3Z" transform="translate(19.792 11.755)"/><path class="a" d="M19,11.7Z" transform="translate(19.792 12.172)"/><path class="b" d="M10.432,10.734l-10,10a1.144,1.144,0,0,0,0,1.836,1.558,1.558,0,0,0,1.02.408c.408,0,.612-.2,1.02-.408l9.793-10a1.144,1.144,0,0,0,0-1.836A1.144,1.144,0,0,0,10.432,10.734Z" transform="translate(0 10.689)"/><path class="b" d="M18.34,14.632h0c-.2,0-.2-.2,0,0l-.2-.2h-.2a.2.2,0,0,0,.2-.2l.2-.2v-.612l-.2-.2h-.408V13H17.32v.2H16.5v.2h-.2v.2h0v.2h.2v.408h0v.2h.2v.612h-.2v.2h.408v.2h.408v-.2h.2v.2h.408v-.2h.2c.2,0,.2-.2.408-.408v-.408c0,.408-.2.2-.2.2Zm-.2-1.224h0c.2,0,0,.2,0,0Zm0,.408ZM16.5,13.408Zm.2.408h0c.2.2,0,.2,0,0Zm-.2,0Zm0,1.428Zm.2-.2Zm0-.2Zm0-.408Zm.2,1.224Zm0-2.244Zm0,.408v-.2h.612a.2.2,0,0,1,.2.2v.2a.2.2,0,0,1-.2.2h-.408v-.408Zm.408,1.632Zm.2,0Zm.2-.408h0c-.2.2-.2.2-.408.2h-.408v-.612h.612c.2,0,.2.2.2.408Zm.612.2h0c-.2-.2,0-.2,0,0Z" transform="translate(16.983 13.524)"/><path class="b" d="M17.178,12.978Z" transform="translate(17.737 13.342)"/><path class="b" d="M17,14.5Z" transform="translate(17.711 15.084)"/><path class="b" d="M17.278,12.8Z" transform="translate(17.841 13.316)"/><path class="b" d="M17.278,14.5Z" transform="translate(17.841 15.084)"/><path class="b" d="M17,12.978Z" transform="translate(17.711 13.342)"/><path class="b" d="M16.9,14.4Z" transform="translate(17.607 14.98)"/><path class="b" d="M16.8,14.4Z" transform="translate(17.503 14.98)"/><path class="b" d="M16.8,12.978Z" transform="translate(17.503 13.342)"/><path class="b" d="M16.7,12.978Z" transform="translate(17.399 13.342)"/><path class="b" d="M16.5,12.9Z" transform="translate(17.191 13.42)"/><path class="b" d="M16.5,14.4h0c0,.2.2.2,0,0Z" transform="translate(17.191 14.98)"/><path class="b" d="M16.4,14.4h0c0,.2.2.2,0,0Z" transform="translate(17.087 14.98)"/><path class="b" d="M16.378,12.9Z" transform="translate(16.905 13.42)"/><path class="b" d="M16.478,12.9Z" transform="translate(17.009 13.42)"/><path class="b" d="M17.378,12.978h0c0-.2-.2-.2,0,0Z" transform="translate(17.945 13.342)"/><path class="b" d="M17.378,13.078h0c0-.2-.2-.2,0,0Z" transform="translate(17.945 13.446)"/><path class="b" d="M17.2,14.3h0c0,.2.2.2,0,0Z" transform="translate(17.919 14.876)"/><path class="b" d="M16.3,14.4Z" transform="translate(16.983 14.98)"/><path class="b" d="M16.6,14.4Z" transform="translate(17.295 14.98)"/><path class="b" d="M16.778,12.9Z" transform="translate(17.321 13.42)"/><path class="b" d="M17.178,12.9Z" transform="translate(17.737 13.42)"/><path class="b" d="M17,14.4Z" transform="translate(17.711 14.98)"/><path class="b" d="M17,13Z" transform="translate(17.711 13.524)"/><path class="b" d="M17.178,14.478Z" transform="translate(17.737 14.902)"/><path class="b" d="M17.1,14.3Z" transform="translate(17.815 14.876)"/><path class="b" d="M17.278,13.078Z" transform="translate(17.841 13.446)"/><path class="b" d="M16.7,14.3Z" transform="translate(17.399 14.876)"/><path class="b" d="M16.878,14.3Z" transform="translate(17.425 14.876)"/><path class="b" d="M16.1,13.5Z" transform="translate(16.775 14.044)"/><path class="b" d="M16.2,13.6Z" transform="translate(16.879 14.148)"/><path class="b" d="M16.1,14v-.2h0Z" transform="translate(16.775 14.356)"/><path class="b" d="M16.1,13.9Z" transform="translate(16.775 14.46)"/><path class="b" d="M16.1,14.3Z" transform="translate(16.775 14.876)"/><path class="b" d="M16.1,13.278Z" transform="translate(16.775 13.654)"/><path class="b" d="M16.2,14.078Z" transform="translate(16.879 14.486)"/><path class="b" d="M16.1,13.2Z" transform="translate(16.775 13.732)"/><path class="b" d="M16.1,14Z" transform="translate(16.775 14.564)"/><path class="b" d="M16.1,13.578Z" transform="translate(16.775 13.966)"/><path class="b" d="M16.1,14.078Z" transform="translate(16.775 14.486)"/><path class="b" d="M16.1,14.1Z" transform="translate(16.775 14.668)"/><path class="b" d="M16.2,14.3Z" transform="translate(16.879 14.876)"/><path class="b" d="M16.2,14.2Z" transform="translate(16.879 14.772)"/><path class="b" d="M16.2,14.1Z" transform="translate(16.879 14.668)"/><path class="b" d="M16.2,13.1Z" transform="translate(16.879 13.628)"/><path class="b" d="M16.2,13.3Z" transform="translate(16.879 13.836)"/><path class="b" d="M16.2,13.7Z" transform="translate(16.879 14.252)"/><path class="b" d="M16.378,13.6Z" transform="translate(16.905 14.148)"/><path class="b" d="M16.2,13.5Z" transform="translate(16.879 14.044)"/><path class="b" d="M16.2,13.8Z" transform="translate(16.879 14.356)"/><path class="b" d="M16.378,13.4Z" transform="translate(16.905 13.94)"/><path class="b" d="M16.2,13.478Z" transform="translate(16.879 13.862)"/><path class="b" d="M16.378,13.3Z" transform="translate(16.905 13.836)"/><path class="b" d="M16.378,14.2Z" transform="translate(16.905 14.772)"/><path class="b" d="M16.378,13.878Z" transform="translate(16.905 14.278)"/><path class="b" d="M16.378,13.6Z" transform="translate(16.905 14.148)"/><path class="b" d="M16.2,14.2Z" transform="translate(16.879 14.772)"/><path class="b" d="M16.1,13.778Z" transform="translate(16.775 14.174)"/><path class="b" d="M16.478,13.078h0c-.2-.2-.2,0,0,0Z" transform="translate(17.009 13.446)"/><path class="b" d="M16.478,14.378Z" transform="translate(17.009 14.798)"/><path class="b" d="M16.2,13.9Z" transform="translate(16.879 14.46)"/><path class="b" d="M16.3,14.3Z" transform="translate(16.983 14.876)"/><path class="b" d="M16.2,13Z" transform="translate(16.879 13.524)"/><path class="b" d="M16.3,13Z" transform="translate(16.983 13.524)"/><path class="b" d="M16.378,13.9Z" transform="translate(16.905 14.46)"/><path class="b" d="M16,13.378Z" transform="translate(16.671 13.758)"/><path class="b" d="M16,14.3Z" transform="translate(16.671 14.876)"/><path class="b" d="M16,13.9Z" transform="translate(16.671 14.46)"/><path class="b" d="M16,13.278h0c0-.2.2-.2,0,0Z" transform="translate(16.671 13.654)"/><path class="b" d="M16,13.978Z" transform="translate(16.671 14.382)"/><path class="b" d="M16,14.2Z" transform="translate(16.671 14.772)"/><path class="b" d="M16,13.3Z" transform="translate(16.671 13.836)"/><path class="b" d="M16,13.5Z" transform="translate(16.671 14.044)"/><path class="b" d="M35.1,15.506h0l-.408-.408c-1.428-1.224-2.652-2.652-4.081-4.081h0A13.148,13.148,0,0,0,17.758,0,12.975,12.975,0,0,0,4.7,12.854,12.8,12.8,0,0,0,17.554,25.708h1.428v5.917a.439.439,0,0,0,.408.408h5.917c.2,0,.2,0,.408-.2.408-.408,0-.816,0-1.224-.2-.408-.408-.2-.612-.2H20.614c-.2,0-.2,0-.2-.2V25.5h0a11.867,11.867,0,0,0,5.1-2.448h5.713c.408,0,.612-.2.612-.408,0-.408,0-.612-.408-.816H26.735l-1.428,1.428h0a4.767,4.767,0,0,0,1.428-1.428h0a7.328,7.328,0,0,0,1.428-2.04,11.7,11.7,0,0,1,.816-1.428h0l.612-1.836h0a.75.75,0,0,1,.2-.612.75.75,0,0,1-.2.612h3.673v6.937h0v.408h0V30.6h-.816c-.816,0-.816,0-1.02.612,0,.2.2.612.408.612h1.836c.408,0,.816-.2.612-.816v-.2h0V15.914C35.1,15.71,35.1,15.506,35.1,15.506ZM27.143,9.181ZM7.352,12.854a10.139,10.139,0,0,1,5.3-8.977V21.423A9.422,9.422,0,0,1,7.352,12.854Zm11.834,10.2c-.408,0-1.02.2-1.428.2a13.777,13.777,0,0,1-2.856-.408V12.242h0v-.2h0V4.693h8.773a11.926,11.926,0,0,1,3.469,4.285h0v.2h0v.2c-.2,0-.2-.2-.408-.2v0h-.2c-.2,0-.408,0-.408.2-.2.2-.2.2-.2.408s0,.408.2.408a.712.712,0,0,0,.408.2h0v-.2c-.2,0-.2,0-.2-.2l-.2-.2a.439.439,0,0,1,.408-.408h.2c.2,0,.2,0,.2.2l.2-.2c.408.408.408.816.612,1.224h0c0,.408.2.816.2,1.428h0v.816a5.649,5.649,0,0,1-.2,1.836V15.1H18.778a1.082,1.082,0,0,0-1.224,1.224c0,.612.408,1.02,1.224,1.02h8.161c-.2.2-.2.612-.408.816h0a6.2,6.2,0,0,1-1.02,1.428c-.408.408-.612.816-1.02,1.02H18.982a1.082,1.082,0,0,0-1.224,1.224c0,.612.408,1.02,1.224,1.02h.612C19.39,23.055,19.39,23.055,19.186,23.055Zm1.428,0v.408h0v-.408Zm0,.612Zm13.262.408Zm0,5.917Zm0-6.121Zm0-.816Zm0-6.529Z" transform="translate(4.915)"/><path class="b" d="M19.96,18.152c-.408-.816-.612-1.632-1.02-2.448,0-.2,0-.2-.2-.2a1.227,1.227,0,0,1-.816.2c-.408,0-.612.2-1.02.408v.2a1.839,1.839,0,0,0,.2,1.02c0,.612.2,1.428.2,2.04,0,.2.2.2.408.2.2-.2.408-.408.612-.408a.383.383,0,0,1,.612,0c.408.2,1.02.408,1.428.612,0,0,.2.2.2,0v-.408A6.707,6.707,0,0,1,19.96,18.152Z" transform="translate(17.607 16.125)"/><path class="b" d="M17.4,15.5h-.816c-.408,0-.408,0-.612.2a7.247,7.247,0,0,1-.816,1.836,1.227,1.227,0,0,0-.2.816c-.2.408-.2.612-.408,1.02,0,0-.2.2,0,.2h.2c.408-.2,1.02-.408,1.428-.612h.408a2.816,2.816,0,0,0,.816.612c.2.2.2,0,.2-.2a1.529,1.529,0,0,1,.2-1.02c0-.816.2-1.428.2-2.244C18.219,15.7,17.811,15.5,17.4,15.5Z" transform="translate(15.064 16.125)"/><path class="b" d="M16.669,12.5c.2-.2,0-.2-.2-.2H14.016c-.408,0-.816.2-.816.612s.2.612.816.612h1.428c.2,0,.2,0,.2-.2q.306-.612.612-.612C16.669,12.708,16.669,12.708,16.669,12.5Z" transform="translate(13.758 12.796)"/><path class="b" d="M19.256,9h-2.04a5.114,5.114,0,0,1-.816,1.428h2.652c.408,0,.612-.2.612-.408,0-.408,0-.612-.408-.816C19.46,9,19.46,9,19.256,9Z" transform="translate(17.087 9.363)"/><path class="b" d="M20.429,19.3c.612,0,.816-.2,1.02-.816a4.46,4.46,0,0,1,.612-1.02c.408-.408.612-.612.408-1.224a1.3,1.3,0,0,1,0-1.224c.2-.612.2-.816-.408-1.224a2.037,2.037,0,0,1-.816-1.02c0-.2-.2-.408-.408-.612,0,0-.2-.2-.2,0h-.612c-.2-.2-.408-.2-.612-.408-.2,0-.2-.2-.408,0h-.612c-.2,0-.2.2-.408.2h-.2a.2.2,0,0,0-.2.2h0a1.839,1.839,0,0,0-1.02.2c-.612.2-.816.2-.612.816,0,.408-.2.612-.612.816-.612.408-.612.612-.408,1.428,0,.408.2.612,0,.816s-.408.816,0,1.02c0,.2.2.2.408.2.408.2.408.408.612.816.2.816.408,1.02,1.224,1.02.408,0,.612,0,.816.2a.75.75,0,0,0,.612.2c.408,0,.612,0,.816-.2A1.529,1.529,0,0,1,20.429,19.3Zm-4.693-3.469a2.789,2.789,0,0,1,2.856-2.856,2.964,2.964,0,0,1,2.856,3.06,2.918,2.918,0,0,1-2.856,2.856A3.1,3.1,0,0,1,15.736,15.827Z" transform="translate(15.302 12.125)"/><path class="c" d="M15,14.9Z" transform="translate(15.631 15.501)"/><path class="b" d="M13.7,5.9h0c-.2.2-.2.2-.2.408h.408c-.2,0,0-.2-.2-.408.2.2,0,.2,0,0Zm0,.408h-.2V5.9h.408c-.2.2-.2.2-.2.408Z" transform="translate(14.07 6.138)"/><path class="b" d="M14.1,5.9h-.2v.408h.2V5.9Zm-.2,0Z" transform="translate(14.486 6.138)"/><path class="c" d="M13.7,5.8h0V6h0v.408h0V6h0Z" transform="translate(14.278 6.034)"/><path class="c" d="M14.1,5.9h0v.2h0V5.9Z" transform="translate(14.694 6.138)"/><path class="c" d="M15.078,6.308h0l.2-.408h0l-.2.408h0V5.9h0v.408Z" transform="translate(15.553 6.138)"/><path class="b" d="M13.2,6.308h.2V5.9H13v.612h0v-.2Zm.2-.2h.2v.408H13.2c0-.408,0-.408.2-.408Z" transform="translate(13.55 6.138)"/><path class="b" d="M14.9,5.9h0c-.2.2-.2.2-.2.408h.408a.632.632,0,0,0-.2-.408Zm0,.408h-.2V5.9h.408c0,.2,0,.2-.2.408Z" transform="translate(15.318 6.138)"/><path class="b" d="M14.7,6.308,14.5,5.9h0l.2.408-.2.2h.2l.2-.612h0Z" transform="translate(15.11 6.138)"/><path class="c" d="M13.5,5.9h0l-.2.408h0l.2-.408Z" transform="translate(13.862 6.138)"/><path class="c" d="M15.2,6.078h0v.2h0Z" transform="translate(15.839 6.164)"/><path class="c" d="M14.3,6.412h0V6h0V5.8h0V6h0Z" transform="translate(14.902 6.034)"/><path class="b" d="M12.324,5.34a1.06,1.06,0,0,0,.816-.408V5.34h.2V3.3h-.2v.408a1.547,1.547,0,0,0-.816-.408,1.06,1.06,0,0,0-.816.408,1.02,1.02,0,0,0,0,1.632Zm-.612-1.632a.75.75,0,0,1,.612-.2.721.721,0,0,1,.816.816.721.721,0,0,1-.816.816.721.721,0,0,1-.816-.816C11.3,4.116,11.508,3.912,11.712,3.708Z" transform="translate(11.573 3.433)"/><path class="b" d="M12.6,4.016h0c0-.2,0-.408.2-.408l.2-.2h.408a.2.2,0,0,1,.2.2l.2-.2-.2-.2h-.408l-.2.2h-.2V5.648h.2V4.016Z" transform="translate(13.134 3.329)"/><path class="b" d="M13.5,8.1h0v.408h.2V7.085c0-.2,0-.408.2-.408.2-.2.2-.2.408-.2a.541.541,0,0,1,.612.612V8.309h.2V7.085c0-.612-.2-.816-.816-.816-.2,0-.612.2-.612.408V4.024h.408v-.2h-.408V2.8h-.2V3.82h-.2v.2h.2V8.1Z" transform="translate(13.862 2.913)"/><path class="b" d="M11.62,4.7l-.2-.2h-.2a.2.2,0,0,0-.2.2l-.2.2V4.5h-.2V6.744h.2V4.908a.2.2,0,0,1,.2-.2h.408s0,.2.2,0Z" transform="translate(11.053 4.681)"/><path class="b" d="M11.9,5.724a1.06,1.06,0,0,0,.408.816,1.02,1.02,0,0,0,1.632,0v.408a.75.75,0,0,1-.2.612h-.612a.75.75,0,0,1-.612-.2c-.2,0-.2-.2-.408-.408h-.2a1.119,1.119,0,0,0,1.224.816c.408,0,.612,0,.816-.2,0-.2.2-.612.2-.816V4.5h-.2v.408a1.547,1.547,0,0,0-.816-.408,1.06,1.06,0,0,0-.816.408C11.9,5.112,11.9,5.316,11.9,5.724ZM12.92,4.7a.721.721,0,0,1,.816.816.721.721,0,0,1-.816.816.75.75,0,0,1-.612-.2c-.2,0-.2-.2-.2-.408a.75.75,0,0,1,.2-.612C12.512,4.908,12.716,4.7,12.92,4.7Z" transform="translate(12.406 4.681)"/><path class="b" d="M14.808,7.16h.2V5.12h.408v-.2h-.408V4.1h-.2v.816H14.4v.2h.408Z" transform="translate(15.006 4.265)"/><rect class="b" width="0.204" height="2.244" transform="translate(23.285 9.181)"/><path class="b" d="M15.608,6.224h.408c.2,0,.408,0,.408-.2.2-.2.2-.2.2-.408s0-.408-.2-.408h-.2a.2.2,0,0,1-.2-.2h0v.2h.408c.2,0,.2.2.2.408a.439.439,0,0,1-.408.408h-.2c-.408,0-.408,0-.408.2v-.2h0l-.2-.2-.2.2a.712.712,0,0,0,.408.2Z" transform="translate(15.839 5.202)"/></g></svg>