<svg xmlns="http://www.w3.org/2000/svg" viewBox="6850 1998 34.502 35.819"><defs><style>.a{fill:#bababa;}</style></defs><g transform="translate(6849.154 1998)"><path class="a" d="M29.006,30.882h-.078v.157h.157v-.157h-.078m-.392.706h0v.078h.157V31.51h-.157v.078m.549-1.412h-.078v.157h.157v-.157h-.078m-.235,0h.078V30.02h-.157v.157h.078M28.614,31.9h.078v-.157h-.157V31.9h.078m.157.941h.078v-.157h-.157v.157h.078m-.314-.549h0v-.078H28.3v.157h.157v-.078Zm.784-2.667h0v-.078h-.157v.157h.157v-.078m.078,2.588v.157h.157v-.157H29.32m.078-2.51h.078v-.157H29.32v.157H29.4m.549,2.745v-.157H29.79v.157h.157m1.333-2.667h.157v-.235H31.28a.147.147,0,0,1,0,.235m.157.392V30.1H31.28v.157h.157v-.078m-.392,1.961V31.98h-.157v.157h.157m-1.49-1.882c0,.157-.078.235-.078.392h.392a.472.472,0,0,0,.314-.078,1.083,1.083,0,0,0,.314-.235.472.472,0,0,0,.078-.314c0-.078-.078-.157-.157-.235h-.863l-.078.078a.707.707,0,0,1,.078.392m.235,1.882h0a.707.707,0,0,0,.392-.078.169.169,0,0,0,.157-.157.288.288,0,0,0,.078-.235c0-.157,0-.235-.157-.314a.288.288,0,0,0-.235-.078H29.4l-.078.078c0,.157-.078.314-.078.471,0,.078-.078.235-.078.314h.627m.314,1.1a.288.288,0,0,1-.235-.078,3.4,3.4,0,0,1-.392-.078c-.078,0-.078,0,0-.078,0-.157.078-.235.078-.392v-.078h-.314v.314h-.235v.078h-.392c0-.157.078-.235.078-.392v-.078h-.235c-.078,0-.078,0,0-.078v-.078H28.3c0-.157.078-.235.078-.392h.314c.078-.235.078-.392.157-.627,0-.078,0-.078.078-.078h.157v-.078h-.157a.288.288,0,0,1,.078-.235h.157V30.8h-.157v-.078c.078-.235.078-.392.157-.627V30.02h-.157v-.157h.157v-.078h-.157v-.157h.549c0-.157.078-.235.078-.392a.077.077,0,0,1,.078-.078h.706v.235h-.157v.157h.392c0-.157.078-.235.078-.392v-.078c.235,0,.471-.078.706-.078h0v.157H31.28v.078h.157c0,.078,0,.078.078.078a1,1,0,0,1,.471.078l.235.235v.235c0,.157-.078.314-.078.471a.945.945,0,0,1-.392.392l-.471.235a.077.077,0,0,0-.078.078V31.2a.288.288,0,0,1,.235.078.077.077,0,0,1,.078.078h0v.157h.314a.588.588,0,0,1,.078.392,1.454,1.454,0,0,1-.157.549,1.054,1.054,0,0,1-.549.471h-.471c-.627,0-.627.157-.627.314h0" transform="translate(-6.128 -6.255)"/><path class="a" d="M31.8,28.414v-.235h0a.288.288,0,0,0,.235-.078.288.288,0,0,1-.078.235h0c-.078.078-.078.078-.157.078h0" transform="translate(-6.883 -6.06)"/><path class="a" d="M30.757,34.735c-.078,0-.157,0-.157-.078h0V34.5h.157v.235" transform="translate(-6.625 -7.441)"/><path class="a" d="M32.1,28.335v-.157a.077.077,0,0,1,.078-.078h.157v.235H32.1" transform="translate(-6.948 -6.06)"/><path class="a" d="M31.057,34.814c-.078,0-.157,0-.157-.078h0a.288.288,0,0,1,.078-.235h.157a.593.593,0,0,0-.078.314" transform="translate(-6.689 -7.441)"/><path class="a" d="M31.4,28.557c0-.078,0-.157.078-.157h.157v.157h0a.147.147,0,0,0-.235,0" transform="translate(-6.797 -6.125)"/><path class="a" d="M30.157,34.657H30V34.5h.157v.157" transform="translate(-6.495 -7.441)"/><path class="a" d="M29.686,34.3h.157c.078,0,.078,0,.078.078v.078h-.157c-.157,0-.157-.078-.078-.157" transform="translate(-6.416 -7.398)"/><path class="a" d="M30.8,28.657V28.5h.235v.157h0c-.157-.078-.157-.078-.235,0" transform="translate(-6.668 -6.147)"/><path class="a" d="M30.484,28.578h0c0-.078,0-.078.078-.078h.157v.157h-.157c-.157,0-.157,0-.078-.078h0" transform="translate(-6.587 -6.147)"/><path class="a" d="M29.878,28.657H29.8V28.5h.157v.157h-.078" transform="translate(-6.452 -6.147)"/><path class="a" d="M28.835,34.378h0c0,.078,0,.078-.078.078H28.6V34.3h.157c.078,0,.078,0,.078.078Z" transform="translate(-6.193 -7.398)"/><path class="a" d="M28.535,34.37h0c0,.078,0,.078-.078.078H28.3v-.157h.157c.078-.078.078,0,.078.078h0" transform="translate(-6.128 -7.389)"/><path class="a" d="M28.878,28.5h.078v.157H28.8V28.5h.078" transform="translate(-6.236 -6.147)"/><path class="a" d="M29.278,28.5h.078v.157H29.2V28.5h.078" transform="translate(-6.323 -6.147)"/><path class="a" d="M32.4,28.635v-.157h0c.078,0,.157,0,.157-.078v.157h0c0,.078-.078.078-.157.078" transform="translate(-7.013 -6.125)"/><path class="a" d="M32.3,28.935v-.157h0c.078,0,.157,0,.157-.078v.157h0c0,.078-.078.078-.157.078" transform="translate(-6.991 -6.19)"/><path class="a" d="M31.557,34.235c-.078,0-.078,0-.157-.078h0V34h.157c.078,0,.078,0,.078.078-.078.078-.078.078-.078.157" transform="translate(-6.797 -7.333)"/><path class="a" d="M28.157,34.457H28V34.3h.157c.078,0,.078.078,0,.157" transform="translate(-6.064 -7.398)"/><path class="a" d="M29.157,34.457H29V34.3h.157v.157h0" transform="translate(-6.279 -7.398)"/><path class="a" d="M30.357,28.4v.157H30.2V28.4h0c0,.078.078,0,.157,0" transform="translate(-6.538 -6.125)"/><path class="a" d="M31.957,28.5v.157H31.8V28.5h0c.078.078.078,0,.157,0" transform="translate(-6.883 -6.147)"/><path class="a" d="M30.857,34.457H30.7V34.3h.157v.157" transform="translate(-6.646 -7.398)"/><path class="a" d="M31.7,29.057V28.9h.235v.157H31.7" transform="translate(-6.862 -6.233)"/><path class="a" d="M30.7,33.9h.157v.157H30.7V33.9" transform="translate(-6.646 -7.311)"/><path class="a" d="M31.157,34.157H31V34h.157c.078,0,.078.078,0,.157" transform="translate(-6.711 -7.333)"/><path class="a" d="M32.257,28.8v.157H32.1V28.8h.157" transform="translate(-6.948 -6.211)"/><path class="a" d="M29.635,33.957h-.157c-.078,0-.078,0-.078-.078V33.8h.157c.078,0,.078.078.078.157" transform="translate(-6.366 -7.29)"/><path class="a" d="M29.384,34.078c0-.078,0-.078.078-.078h.078v.157h-.157c-.078,0-.078,0,0-.078h0" transform="translate(-6.35 -7.333)"/><path class="a" d="M27.778,30.957H27.7V30.8h.157v.157Z" transform="translate(-5.999 -6.643)"/><path class="a" d="M28.078,31.1h.078v.157H28V31.1h.078" transform="translate(-6.064 -6.708)"/><path class="a" d="M27.657,32v.157H27.5V32h.157" transform="translate(-5.956 -6.902)"/><path class="a" d="M27.578,32.178h.078v.078H27.5V32.1h0c0,.078,0,.078.078.078Z" transform="translate(-5.956 -6.923)"/><path class="a" d="M27.335,33.778h0c0,.078,0,.078-.078.078H27.1V33.7h.157c.078,0,.078,0,.078.078h0" transform="translate(-5.87 -7.268)"/><path class="a" d="M28.157,29.557H28V29.4h.157v.157" transform="translate(-6.064 -6.341)"/><path class="a" d="M27.778,32.5h.078v.157H27.7v-.078c0-.078,0-.078.078-.078Z" transform="translate(-5.999 -7.009)"/><path class="a" d="M28.157,29.778c0,.078,0,.078-.078.078H28V29.7h.157v.078h0" transform="translate(-6.064 -6.406)"/><path class="a" d="M27.378,32.957H27.3V32.8h.157v.157h-.078" transform="translate(-5.913 -7.074)"/><path class="a" d="M27.778,30.657H27.7V30.5h.157v.157h-.078Z" transform="translate(-5.999 -6.578)"/><path class="a" d="M27.3,32.578h0c0-.078,0-.078.078-.078h.157v.157h-.157c-.078.078-.078,0-.078-.078h0" transform="translate(-5.913 -7.009)"/><path class="a" d="M27.435,33.178h0c0,.078,0,.078-.078.078H27.2V33.1h.157c.078,0,.078,0,.078.078h0" transform="translate(-5.891 -7.139)"/><path class="a" d="M27.478,34.157H27.4V34h.157v.078c0,.078,0,.078-.078.078h0" transform="translate(-5.934 -7.333)"/><path class="a" d="M27.635,33.778h0c0,.078,0,.078-.078.078H27.4V33.7h.157c.078,0,.078,0,.078.078h0" transform="translate(-5.934 -7.268)"/><path class="a" d="M27.735,33.178h0c0,.078,0,.078-.078.078H27.5V33.1h.157c.078,0,.078,0,.078.078h0" transform="translate(-5.956 -7.139)"/><path class="a" d="M28.378,29.4h.078v.157H28.3V29.4h.078" transform="translate(-6.128 -6.341)"/><path class="a" d="M28.278,29.984h.078v.157H28.2v-.157s0-.078.078,0Z" transform="translate(-6.107 -6.454)"/><path class="a" d="M27.878,31.857H27.8V31.7h.157v.157h-.078Z" transform="translate(-6.021 -6.837)"/><path class="a" d="M28.378,31.257H28.3V31.1h.157v.157h-.078" transform="translate(-6.128 -6.708)"/><path class="a" d="M28.178,30.8h.078v.157H28.1V30.8h.078Z" transform="translate(-6.085 -6.643)"/><path class="a" d="M27.878,31.9h.078v.157H27.8V31.9c0,.078,0,0,.078,0Z" transform="translate(-6.021 -6.88)"/><path class="a" d="M28.478,30.657H28.4V30.5h.157v.157h-.078" transform="translate(-6.15 -6.578)"/><path class="a" d="M28.178,30.457H28.1V30.3h.157v.157h-.078Z" transform="translate(-6.085 -6.535)"/><path class="a" d="M28.578,30.2h.078v.157H28.5V30.2h.078Z" transform="translate(-6.172 -6.513)"/><path class="a" d="M27.878,33.7h.078v.157H27.8V33.7h.078Z" transform="translate(-6.021 -7.268)"/><path class="a" d="M28.278,31.857H28.2V31.7h.157v.157h-.078" transform="translate(-6.107 -6.837)"/><path class="a" d="M28.278,31.557H28.2V31.4h.157v.157h-.078" transform="translate(-6.107 -6.772)"/><path class="a" d="M27.578,33.557H27.5V33.4h.157v.157h-.078Z" transform="translate(-5.956 -7.204)"/><path class="a" d="M27.678,31.557H27.6V31.4h.157v.157h-.078" transform="translate(-5.977 -6.772)"/><path class="a" d="M29.157,28.957H29V28.8h.157v.157Z" transform="translate(-6.279 -6.211)"/><path class="a" d="M28.178,33.857H28.1V33.7h.157v.157Z" transform="translate(-6.085 -7.268)"/><path class="a" d="M28.078,32.657H28V32.5h.157v.157Z" transform="translate(-6.064 -7.009)"/><path class="a" d="M28.178,34.157H28.1V34h.157v.157Z" transform="translate(-6.085 -7.333)"/><path class="a" d="M28.857,29.178h0c0,.078,0,.078-.078.078H28.7V29.1h.157v.078h0" transform="translate(-6.215 -6.276)"/><path class="a" d="M29.257,29.178c0,.078,0,.078-.078.078H29.1V29.1h.157v.078h0" transform="translate(-6.301 -6.276)"/><path class="a" d="M28.257,32.278c0,.078,0,.078-.078.078H28.1V32.2h.157v.078h0" transform="translate(-6.085 -6.945)"/><path class="a" d="M27.735,29.978h0c0,.078,0,.078-.078.078H27.5V29.9h.157c.078,0,.078,0,.078.078h0" transform="translate(-5.956 -6.449)"/><path class="a" d="M26.957,33.778v.078H26.8V33.7h.157c.078,0,.078,0,0,.078.078-.078.078,0,0,0h0" transform="translate(-5.805 -7.268)"/><path class="a" d="M27.178,32.2h.078v.157H27.1V32.2c0,.078,0,0,.078,0Z" transform="translate(-5.87 -6.945)"/><path class="a" d="M27.835,29.478h0c0,.078,0,.078-.078.078H27.6V29.4h.157c.078,0,.078,0,.078.078Z" transform="translate(-5.977 -6.341)"/><path class="a" d="M27.278,32h.078v.157H27.2V32h.078Z" transform="translate(-5.891 -6.902)"/><path class="a" d="M26.878,33.557H26.8V33.4h.157v.157h-.078" transform="translate(-5.805 -7.204)"/><path class="a" d="M27.657,30.357H27.5V30.2h.157v.157" transform="translate(-5.956 -6.513)"/><path class="a" d="M27.478,30.957H27.4V30.8h.157v.157Z" transform="translate(-5.934 -6.643)"/><path class="a" d="M31.85,27.687h0M33.5,19.059h0M35.614,8.314h0m-1.882,9.412Zm-.314,1.647h0M37.575,6.9c0-.157-.078-.235-.157-.235a1.377,1.377,0,0,0-.314-.392C35.536,4.392,33.967,2.51,32.4.549A1.32,1.32,0,0,0,31.222,0H17.261a1.1,1.1,0,0,0-1.1.941c-.314,1.8-.706,3.529-1.02,5.333l-.078.235a3.4,3.4,0,0,1-.078.392c-1.412,7.216-2.824,14.51-4.235,21.726a1.727,1.727,0,0,0-.078.627,2.668,2.668,0,0,0-.078.784c-.078.314.078.471.392.471h8.392a.747.747,0,0,0,.549-.157c.627-.627.314-1.176.235-1.726-.157-.471-.549-.235-.941-.157H12.869c-.157,0-.157-.078-.157-.235a1.335,1.335,0,0,0,.078-.549c0-.157.078-.235.078-.392.471-2.51.941-5.02,1.49-7.53.078-.157-.078-.392.157-.549a1,1,0,0,0,.078-.471c0-.078,0-.078-.078-.157,0-.078.078-.078.078-.157a.077.077,0,0,1,.078-.078c0-.157.078-.314.078-.471v-.235a1.05,1.05,0,0,0,.078-.392c.549-2.9,1.1-5.726,1.647-8.628,0-.078.078-.157,0-.235h0V8.314h.078V7.922c0-.157.078-.314.078-.549.078-.157.078-.392.157-.549l.863-4.549a.288.288,0,0,1,.078-.235H29.967c.235.078.078.314.078.549-.314,1.569-.627,3.137-.941,4.628q-.235,1.176.941,1.176h5.333c-.627,3.216-1.255,6.353-1.882,9.569,0,.157-.078.235-.078.392H33.5c0,.157-.078.392-.078.549H33.34a.588.588,0,0,1-.078.392c-.627,3.059-1.176,6.2-1.8,9.255h-1.02c-1.02,0-1.02,0-1.49,1.02a.638.638,0,0,0,.471.941h2.588a1.205,1.205,0,0,0,1.255-1.1c0-.078,0-.078.078-.157h0c0-.078,0-.078.078-.157,1.412-7.137,2.824-14.353,4.235-21.49a1.947,1.947,0,0,0-.078-.706" transform="translate(-2.305 0)"/><path class="a" d="M32.814,42.129c-.235-1.176-.549-2.431-.784-3.608,0-.157,0-.392-.314-.235a3.669,3.669,0,0,1-1.255.157,2.915,2.915,0,0,0-1.49.706c-.078,0-.078.078-.078.157-.078.471-.078.941-.157,1.412-.078,1.02-.157,1.961-.235,2.98,0,.392.078.471.471.235l1.176-.706a.706.706,0,0,1,.784-.078c.627.235,1.255.549,1.8.784.157.078.235.157.392,0s.078-.314.078-.471a3.761,3.761,0,0,1-.392-1.333" transform="translate(-6.172 -8.246)"/><path class="a" d="M24.257,38.137a2.669,2.669,0,0,1-1.1-.157c-.392-.157-.471-.078-.784.392-.549.784-.863,1.726-1.49,2.51-.314.314-.314.784-.549,1.176-.235.471-.549.941-.784,1.412-.078.157-.235.314-.157.392.078.157.314,0,.471,0,.706-.235,1.49-.549,2.2-.784a.592.592,0,0,1,.627.078l.941.706c.235.157.392.157.471-.157.157-.549.314-1.1.471-1.569.314-1.02.706-2.039.941-3.137a1.473,1.473,0,0,0-1.255-.863" transform="translate(-4.203 -8.176)"/><path class="a" d="M18.659,28.261h2.2a.474.474,0,0,0,.471-.235,2.932,2.932,0,0,1,1.176-1.02.612.612,0,0,0,.314-.314c.157-.235.235-.392-.157-.392H19.052a1.209,1.209,0,0,0-1.255.941.807.807,0,0,0,.863,1.02" transform="translate(-3.861 -5.672)"/><path class="a" d="M37.6,14.078A1,1,0,0,0,37.132,14h-2.9A1.284,1.284,0,0,0,32.9,15.02q-.118.941.941.941h2.98a1.047,1.047,0,0,0,1.1-.706.865.865,0,0,0-.314-1.176" transform="translate(-7.117 -3.019)"/><path class="a" d="M21.979,1.878C21.4,1.8,20.231,1.8,18.482,1.8c-2.622,0-4.371.392-4.954,1.02q-.437.941,3.5.941h2.04c2.04,0,3.5-.235,4.079-.706.874-.549.291-.941-1.166-1.176" transform="translate(-10.293 -0.388)"/><path class="a" d="M18.168,8.678A10.483,10.483,0,0,0,16.6,8.6h.261c-2.35,0-3.916.392-4.438,1.02q-.392.941,3.133.941h6.266c1.828,0-3.133-.235-2.611-.706.783-.549.261-.941-1.044-1.176" transform="translate(-9.583 -1.855)"/><path class="a" d="M18.56,15.678a11.983,11.983,0,0,0-1.675-.078H15.209a4.152,4.152,0,0,0-3.072,1.02c-.279.549.279.863,1.675.863h1.955c1.955,0,3.351-.235,3.909-.706.838-.471.558-.863-1.117-1.1" transform="translate(-9.364 -3.365)"/><path class="a" d="M14.824,22.578a6.172,6.172,0,0,0-1.2-.078h-2.4a2.523,2.523,0,0,0-2.2,1.02c-.2.549.2.941,1.2.941h2.6c1.4,0,2.4-.235,2.8-.706.6-.471.2-.863-.8-1.176" transform="translate(-6.173 -4.853)"/><path class="a" d="M10.634,29.578a1.67,1.67,0,0,0-.617-.078H6.831A1.267,1.267,0,0,0,5.7,30.52c-.1.549.1.941.617.941H9.606a1.426,1.426,0,0,0,1.439-.706.753.753,0,0,0-.411-1.176" transform="translate(-2.873 -6.362)"/><path class="a" d="M7.671,36.578A1,1,0,0,0,7.2,36.5H3.357c-.392,0-.706.392-.863,1.02q-.118.941.471.941h.314c.784,0,4.628.392,4.784-.706.078-.549.078-.941-.392-1.176" transform="translate(-0.559 -7.872)"/><path class="a" d="M12.141,41.978a1.914,1.914,0,0,0-.7-.078H1.009A1.157,1.157,0,0,0-.1,42.92c-.07.627.209.941.765.941H11.167c.765,0,1.322-.235,1.531-.706.348-.549.139-.941-.557-1.176" transform="translate(1.652 -9.037)"/><path class="a" d="M36.5,19.378a1,1,0,0,0-.471-.078h-2.9A1.284,1.284,0,0,0,31.8,20.32q-.118.941.941.941h2.98a1.047,1.047,0,0,0,1.1-.706c.235-.549.157-.941-.314-1.176" transform="translate(-6.88 -4.163)"/><path class="a" d="M23.765,29.906a5.164,5.164,0,0,1,4.941-4.157A3.361,3.361,0,0,1,32,29.985a5.422,5.422,0,0,1-5.02,4.157,3.377,3.377,0,0,1-3.216-4.235m5.647,4.941a1.539,1.539,0,0,0,1.647-1.02,2.963,2.963,0,0,1,1.255-1.333,1.41,1.41,0,0,0,.863-1.726,2.639,2.639,0,0,1,.314-1.726c.392-.784.392-1.176-.157-1.647a1.9,1.9,0,0,1-.784-1.49A.964.964,0,0,0,32,25.044c-.078-.078-.078-.157-.235-.078h-1.02a5.7,5.7,0,0,0-.706-.627c-.157,0-.314-.157-.471-.078h0a.077.077,0,0,0-.078-.078h-.157c-.157-.157-.392,0-.627,0a1.577,1.577,0,0,0-.627.314c-.078,0-.078.078-.157.078a.407.407,0,0,1-.314.157c-.078,0-.078-.078-.157-.078-.549.078-1.02.078-1.569.157-.784.157-1.1.314-1.255,1.176a2.3,2.3,0,0,1-1.02,1.255c-1.02.627-1.176.941-1.02,1.961a1.653,1.653,0,0,1-.235,1.333,1.16,1.16,0,0,0-.392,1.49.945.945,0,0,0,.392.392c.471.235.549.627.627,1.1.078,1.1.392,1.49,1.49,1.49a1.6,1.6,0,0,1,1.176.471,1.2,1.2,0,0,0,.784.314,1.69,1.69,0,0,0,1.333-.392,2.763,2.763,0,0,1,1.647-.549" transform="translate(-4.73 -5.2)"/><path class="a" d="M22.9,36.078a.077.077,0,0,0,.078.078l.078-.078c0-.078,0-.078-.078-.078s-.078,0-.078.078" transform="translate(-4.964 -7.764)"/><path class="a" d="M25.693,18.539c-.392-2.98-.784-6.039-1.1-9.02a.408.408,0,0,0-.784,0c-1.569,2.98-3.137,6.039-4.628,9.02a.352.352,0,0,0,.314.549h5.8a.407.407,0,0,0,.314-.157,3.4,3.4,0,0,0,.078-.392" transform="translate(-4.149 -1.99)"/><path class="a" d="M25.379,7.707A2.337,2.337,0,0,0,27.5,6.06V5.746A1.441,1.441,0,0,0,26.006,4.1a2.248,2.248,0,0,0-2.118,1.8,1.494,1.494,0,0,0,1.49,1.8" transform="translate(-5.168 -0.883)"/></g></svg>