<svg xmlns="http://www.w3.org/2000/svg" viewBox="6954 1998 30.583 36.378"><defs><style>.a{fill:#bababa;}</style></defs><g transform="translate(6954.138 1998)"><path class="a" d="M25.637,4.82H4.928V31.6H25.637ZM14.39,0h1.785A8.339,8.339,0,0,0,17.96.893,2.637,2.637,0,0,1,19.567.714c.714.714,1.428.536,2.321.536.714,0,1.428.179,2.142.179a1.073,1.073,0,0,0,.714-.179c1.25-.893,1.607-.893,2.856,0,.893-.714,1.607-.893,2.142-.357s.536,1.071-.357,2.321c.893,1.25.893,1.785-.179,2.856a1.073,1.073,0,0,0-.179.714,12.425,12.425,0,0,1-.357,5.713,1.885,1.885,0,0,0,.357.893c.536.536.893,1.071.536,1.607a.841.841,0,0,0,.179,1.071,3.9,3.9,0,0,0,.536.893,3.95,3.95,0,0,1-.893,3.927c.536,1.25.536,1.428-.714,2.5a13.8,13.8,0,0,1,.179,7.141c1.428,1.071,1.428,1.785.536,3.213.714.893.893,1.428.357,2.142-.536.536-1.25.536-2.321-.357-.714.714-1.785,1.071-2.321.357-.714-.893-1.607-.714-2.5-.714-.714,0-1.25-.179-1.964-.179a1.073,1.073,0,0,0-.714.179c-.714.893-1.428.714-2.321.179a3.807,3.807,0,0,1-5,.179.543.543,0,0,0-.714,0,1.384,1.384,0,0,1-1.785-.357,1.073,1.073,0,0,0-.714-.179H6.178c-.179,0-.536,0-.536.179-1.071,1.25-1.607,1.25-3.035.357-.893.714-1.785.893-2.142.357-.536-.536-.357-1.25.357-2.142-1.071-1.25-.893-1.964.536-3.213a13.848,13.848,0,0,1,.179-7.141c-1.25-.893-1.25-1.25-.714-2.5C-.427,19.1-.427,17.673.644,15.71a.623.623,0,0,1,.179-.357C.287,14.281,1,13.567,1.894,13.032a20.121,20.121,0,0,1-.536-3.213,19.4,19.4,0,0,1,.179-3.213,1.073,1.073,0,0,0-.179-.714C.287,4.641.287,4.463,1.18,3.035.287,2.142.287,1.428.823.893S1.894.536,2.965,1.25c1.25-.893,1.607-.714,2.856,0a1.073,1.073,0,0,0,.714.179H9.748a1.073,1.073,0,0,0,.714-.179A1.458,1.458,0,0,1,12.6,1.071C13.14.714,13.854.357,14.39,0" transform="translate(0)"/><rect class="a" width="10.913" height="2.346" rx="1" transform="translate(10.011 16.699)"/><rect class="a" width="10.948" height="2.338" rx="1" transform="translate(14.298 23.346) rotate(-90)"/></g></svg>