<svg xmlns="http://www.w3.org/2000/svg" viewBox="5204 4.94 94.082 60">
  <g id="Group_116" data-name="Group 116" transform="translate(5204 4.94)">
    <path id="Path_30" data-name="Path 30" d="M195.511,175.76v2.964H195.2V175.76h-.431v-.34h.431V174h.339v1.451h.77v.34h-.8Zm-1.539.154a1.247,1.247,0,0,0-.277-.154.909.909,0,0,0-.308-.062.349.349,0,0,0-.246.093.721.721,0,0,0-.215.216c-.062.093-.092.185-.154.278a.46.46,0,0,0-.062.278v2.162h-.339v-3.3h.339v.432a.965.965,0,0,1,.277-.34.639.639,0,0,1,.369-.154,1.362,1.362,0,0,1,.4.062,2.021,2.021,0,0,1,.369.185Zm-3.356.216a1.3,1.3,0,0,0-.985-.4,1.345,1.345,0,0,0-.985.4,1.307,1.307,0,0,0-.4.988,1.354,1.354,0,0,0,.4.988,1.3,1.3,0,0,0,.985.4,1.345,1.345,0,0,0,.985-.4,1.306,1.306,0,0,0,.4-.988,1.262,1.262,0,0,0-.4-.988m.339,2.594v-.556a1.649,1.649,0,0,1-1.324.618,1.577,1.577,0,0,1-1.2-.494,1.634,1.634,0,0,1-.493-1.2,1.542,1.542,0,0,1,.493-1.2,1.624,1.624,0,0,1,1.2-.494,1.738,1.738,0,0,1,1.324.618v-.587h.339v3.3Zm-6.034-2.81a1.247,1.247,0,0,0-.277-.154.908.908,0,0,0-.308-.062.349.349,0,0,0-.246.093.721.721,0,0,0-.216.216c-.062.093-.092.185-.154.278a.46.46,0,0,0-.062.278v2.162h-.339v-3.3h.339v.432a.965.965,0,0,1,.277-.34.639.639,0,0,1,.369-.154,1.363,1.363,0,0,1,.4.062,2.022,2.022,0,0,1,.369.185Zm-3.017,2.532a1.143,1.143,0,0,1-.924.34,1.18,1.18,0,0,1-.893-.34,1.328,1.328,0,0,1-.308-.957V175.42h.339v2.069a1.118,1.118,0,0,0,.215.741.8.8,0,0,0,.677.247c.616,0,.924-.34.924-.988V175.42h.308v2.069a1.491,1.491,0,0,1-.339.957m-3.787-2.347a1.3,1.3,0,0,0-.985-.4,1.278,1.278,0,0,0-.954.4,1.307,1.307,0,0,0-.4.988,1.354,1.354,0,0,0,.4.988,1.3,1.3,0,0,0,.985.4,1.345,1.345,0,0,0,.985-.4,1.306,1.306,0,0,0,.4-.988,1.523,1.523,0,0,0-.431-.988m.246,2.192a1.624,1.624,0,0,1-1.2.494,1.533,1.533,0,0,1-1.2-.494,1.718,1.718,0,0,1,0-2.409,1.577,1.577,0,0,1,1.2-.494,1.684,1.684,0,0,1,1.693,1.7,1.787,1.787,0,0,1-.493,1.2m-5.388,1.976h-.369l.862-1.853-1.385-3h.339l1.231,2.594,1.2-2.594h.369Zm-4.433-4.508v2.964H168.2V175.76h-.431v-.34h.431V174h.339v1.451h.77v.34h-.77Zm-2.586,3.026a1.729,1.729,0,1,1,0-3.459,1.719,1.719,0,0,1,1.016.278v.4l-.216-.124-.215-.124a2.086,2.086,0,0,0-.585-.093,1.345,1.345,0,0,0-.985.371,1.4,1.4,0,0,0-.4,1.019,1.262,1.262,0,0,0,.4.988,1.367,1.367,0,0,0,.985.4,1.587,1.587,0,0,0,1.016-.371v.4a1.714,1.714,0,0,1-1.016.309m-3.294-2.81a1.374,1.374,0,0,0-.862-.278,1.266,1.266,0,0,0-1.324,1.019h2.678a1.379,1.379,0,0,0-.493-.741m-2.247,1.05a1.455,1.455,0,0,0,.369,1.05,1.277,1.277,0,0,0,1.016.4,1.331,1.331,0,0,0,1.231-.71l.308.124a1.643,1.643,0,0,1-.954.8,1.487,1.487,0,0,1-.554.093,1.748,1.748,0,0,1-1.231-2.964,1.6,1.6,0,0,1,1.231-.494,1.633,1.633,0,0,1,1.693,1.637h-3.109Zm-1.724-1.266v2.964h-.339V175.76h-.431v-.34h.431V174h.339v1.451h.77v.34h-.77Zm-2.186.34a1.3,1.3,0,0,0-.985-.4,1.278,1.278,0,0,0-.954.4,1.307,1.307,0,0,0-.4.988,1.354,1.354,0,0,0,.4.988,1.3,1.3,0,0,0,.985.4,1.345,1.345,0,0,0,.985-.4,1.307,1.307,0,0,0,.4-.988,1.523,1.523,0,0,0-.431-.988m.246,2.192a1.624,1.624,0,0,1-1.2.494,1.533,1.533,0,0,1-1.2-.494,1.719,1.719,0,0,1,0-2.409,1.577,1.577,0,0,1,1.2-.494,1.684,1.684,0,0,1,1.693,1.7,1.787,1.787,0,0,1-.493,1.2m-3.233-2.378a1.247,1.247,0,0,0-.277-.154.908.908,0,0,0-.308-.062.349.349,0,0,0-.246.093,1.423,1.423,0,0,0-.215.216c-.062.093-.092.185-.154.278a.46.46,0,0,0-.062.278v2.162h-.339v-3.3h.339v.432a.965.965,0,0,1,.277-.34.639.639,0,0,1,.369-.154,1.362,1.362,0,0,1,.4.062,2.021,2.021,0,0,1,.369.185Zm-3.171.216a1.3,1.3,0,0,0-.985-.4,1.346,1.346,0,0,0-.985.4,1.307,1.307,0,0,0-.4.988,1.354,1.354,0,0,0,.4.988,1.3,1.3,0,0,0,.985.4,1.345,1.345,0,0,0,.985-.4,1.306,1.306,0,0,0,.4-.988,1.262,1.262,0,0,0-.4-.988m.246,2.162a1.7,1.7,0,0,1-2.555-.185v2.162H147.7V175.42h.339v.618a1.675,1.675,0,0,1,1.355-.679,1.685,1.685,0,0,1,1.693,1.7,1.675,1.675,0,0,1-.493,1.235" transform="translate(-102.229 -120.269)"/>
    <path id="Path_31" data-name="Path 31" d="M50.932,45.269V42a9.864,9.864,0,0,1-14.5.772A9.592,9.592,0,0,1,33.6,35.789,9.636,9.636,0,0,1,43.359,26a9.582,9.582,0,0,1,7.573,3.582v-3.3H52.81V45.269ZM48.962,30.2a7.9,7.9,0,0,0-11.175-.062,7.957,7.957,0,0,0,0,11.271,7.574,7.574,0,0,0,5.572,2.347,7.931,7.931,0,0,0,5.6-13.556" transform="translate(-23.256 -17.971)"/>
    <path id="Path_32" data-name="Path 32" d="M122.889,29.226a6.523,6.523,0,0,0-1.57-.865,4.775,4.775,0,0,0-1.755-.309,2.431,2.431,0,0,0-1.478.494,4.461,4.461,0,0,0-1.2,1.2,5.839,5.839,0,0,0-.8,1.575,5.447,5.447,0,0,0-.308,1.606V45.438H113.9V26.416h1.878v2.563a7.14,7.14,0,0,1,1.57-1.915,3.063,3.063,0,0,1,2.093-.865,7.16,7.16,0,0,1,2.34.309,8.3,8.3,0,0,1,2.063,1.143Z" transform="translate(-78.835 -18.109)"/>
    <path id="Path_33" data-name="Path 33" d="M8.928,33.628l1.016-1.575a8.3,8.3,0,0,0-2.063-1.143,7.16,7.16,0,0,0-2.34-.309,2.956,2.956,0,0,0-2.093.865,8.243,8.243,0,0,0-1.57,1.915V30.818H0v18.96H1.878V37.272a4.608,4.608,0,0,1,.308-1.606,5.42,5.42,0,0,1,.8-1.575,5.56,5.56,0,0,1,1.2-1.2,2.648,2.648,0,0,1,1.478-.494,4.775,4.775,0,0,1,1.755.309,9.936,9.936,0,0,1,1.509.926m6.958,16.15h1.878V30.818H15.886Zm25.737-9.449a7.708,7.708,0,0,1-2.34,5.651,7.862,7.862,0,0,1-11.145-.062,7.621,7.621,0,0,1-2.34-5.589,7.708,7.708,0,0,1,2.34-5.651,7.862,7.862,0,0,1,11.145.062,7.571,7.571,0,0,1,2.34,5.589M40.576,56.14a9.094,9.094,0,0,0,2.555-6.763V30.818H41.253v3.3a9.828,9.828,0,0,0-14.5-.741,9.349,9.349,0,0,0-2.8,6.948,9.542,9.542,0,0,0,2.832,6.979,9.409,9.409,0,0,0,6.927,2.81,9.393,9.393,0,0,0,7.543-3.582v2.81a7.37,7.37,0,0,1-1.97,5.5,7.248,7.248,0,0,1-5.449,1.976,10.523,10.523,0,0,1-4.495-.865,4.765,4.765,0,0,1-2.894-3.366H24.567Q26.091,58.7,33.8,58.7a9.229,9.229,0,0,0,6.773-2.563m23-6.3h1.878V38.23c0-5.126-2.494-7.658-7.45-7.658-2.617,0-4.495.926-5.634,2.81V15.811h0V10.19h4.4V8.307H52.336V0H50.458V8.307H47.9V10.19h2.555V46.382h0v3.4h1.878V37.427a4.462,4.462,0,0,1,1.693-3.675,5.911,5.911,0,0,1,3.941-1.39c3.725,0,5.572,2.007,5.572,6.022V49.84ZM77.4,32.7V30.818h-4.4V22.512H71.115v8.307H68.56V32.7h2.555V49.779h1.878V32.7h4.4Z"/>
    <path id="Path_34" data-name="Path 34" d="M298.078,91.587a1.569,1.569,0,1,1,.462-1.112,1.809,1.809,0,0,1-.462,1.112m-.123-2.1a1.4,1.4,0,1,0-.985,2.409,1.265,1.265,0,0,0,.985-.432,1.385,1.385,0,0,0,.431-.988,1.523,1.523,0,0,0-.431-.988m-.523,1.853-.554-.834h-.308v.834h-.123V89.548h.677a.383.383,0,0,1,.339.124.5.5,0,0,1,.154.34.44.44,0,0,1-.493.494h-.092l.585.834Zm-.308-1.668h-.554v.679h.554a.34.34,0,0,0,0-.679" transform="translate(-204.458 -61.448)"/>
    <path id="Path_35" data-name="Path 35" d="M274.921,116.9a6.527,6.527,0,0,1-4.4,1.575,7.125,7.125,0,0,1-6.619-4.014l1.6-.957a6.044,6.044,0,0,0,1.878,2.192,5.023,5.023,0,0,0,3.109.865c2.863,0,4.31-1.235,4.31-3.675a3.486,3.486,0,0,0-1.509-2.81,8.625,8.625,0,0,0-1.293-.618c-.554-.216-1.262-.494-2.093-.8a11.463,11.463,0,0,1-3.294-1.668,4.191,4.191,0,0,1-1.478-3.459,4.353,4.353,0,0,1,1.478-3.3,5,5,0,0,1,3.725-1.42,7.28,7.28,0,0,1,5.357,2.192l-1.385,1.2a5.4,5.4,0,0,0-4-1.575c-2.217,0-3.294.957-3.294,2.9a2.536,2.536,0,0,0,1.016,2.1,9.043,9.043,0,0,0,2.617,1.235,20.4,20.4,0,0,1,2.555,1.05,8.628,8.628,0,0,1,1.508.865,4.89,4.89,0,0,1,1.97,4.107,4.791,4.791,0,0,1-1.755,4.014" transform="translate(-182.656 -68.29)"/>
  </g>
</svg>
